<svg width="48" height="48" viewBox="0 0 48 48" fill="none" xmlns="http://www.w3.org/2000/svg">
<rect width="48" height="48" rx="24" fill="#192130"/>
<g clip-path="url(#clip0_103_4257)">
<path d="M21 31C16 32.5 16 28.5 14 28M28 34V30.13C28.0375 29.6532 27.9731 29.1738 27.811 28.7238C27.6489 28.2738 27.3929 27.8634 27.06 27.52C30.2 27.17 33.5 25.98 33.5 20.52C33.4997 19.1238 32.9627 17.7812 32 16.77C32.4559 15.5485 32.4236 14.1983 31.91 13C31.91 13 30.73 12.65 28 14.48C25.708 13.8588 23.292 13.8588 21 14.48C18.27 12.65 17.09 13 17.09 13C16.5764 14.1983 16.5441 15.5485 17 16.77C16.0301 17.7887 15.4925 19.1435 15.5 20.55C15.5 25.97 18.8 27.16 21.94 27.55C21.611 27.89 21.3573 28.2954 21.1953 28.7399C21.0334 29.1844 20.9668 29.6581 21 30.13V34" stroke="#C0C2C4" stroke-width="2" stroke-linecap="round" stroke-linejoin="round"/>
</g>
<defs>
<clipPath id="clip0_103_4257">
<rect width="24" height="24" fill="white" transform="translate(12 12)"/>
</clipPath>
</defs>
</svg>
