<svg width="48" height="48" viewBox="0 0 48 48" fill="none" xmlns="http://www.w3.org/2000/svg">
<rect width="48" height="48" rx="24" fill="#192130"/>
<g clip-path="url(#clip0_103_4252)">
<path d="M17.5866 19.7211H12.7686C12.5547 19.7211 12.3815 19.8944 12.3815 20.1082V35.5865C12.3815 35.8003 12.5547 35.9736 12.7686 35.9736H17.5866C17.8004 35.9736 17.9737 35.8003 17.9737 35.5865V20.1082C17.9737 19.8944 17.8004 19.7211 17.5866 19.7211Z" fill="#C0C2C4"/>
<path d="M15.1793 12.0264C13.4262 12.0264 12 13.4511 12 15.2022C12 16.9542 13.4262 18.3794 15.1793 18.3794C16.931 18.3794 18.3561 16.9541 18.3561 15.2022C18.3561 13.4511 16.931 12.0264 15.1793 12.0264Z" fill="#C0C2C4"/>
<path d="M29.8416 19.3364C27.9065 19.3364 26.476 20.1682 25.6084 21.1134V20.1082C25.6084 19.8944 25.4351 19.7211 25.2213 19.7211H20.6072C20.3934 19.7211 20.2201 19.8944 20.2201 20.1082V35.5865C20.2201 35.8003 20.3934 35.9736 20.6072 35.9736H25.4147C25.6285 35.9736 25.8018 35.8003 25.8018 35.5865V27.9283C25.8018 25.3477 26.5028 24.3423 28.3017 24.3423C30.2608 24.3423 30.4165 25.954 30.4165 28.0611V35.5865C30.4165 35.8004 30.5898 35.9736 30.8036 35.9736H35.6129C35.8268 35.9736 36 35.8004 36 35.5865V27.0964C36 23.2591 35.2683 19.3364 29.8416 19.3364Z" fill="#C0C2C4"/>
</g>
<defs>
<clipPath id="clip0_103_4252">
<rect width="24" height="24" fill="white" transform="translate(12 12)"/>
</clipPath>
</defs>
</svg>
