<svg width="40" height="40" viewBox="0 0 40 40" fill="none" xmlns="http://www.w3.org/2000/svg">
<g clip-path="url(#clip0_104_11805)">
<path d="M38.1818 0H1.81818C0.814061 0 0 0.814061 0 1.81818V38.1818C0 39.1859 0.814061 40 1.81818 40H38.1818C39.1859 40 40 39.1859 40 38.1818V1.81818C40 0.814061 39.1859 0 38.1818 0ZM36.3636 36.3636H3.63636V3.63636H36.3636V36.3636Z" fill="white"/>
<path d="M10.9092 13.3332H29.0911C30.0952 13.3332 30.9092 12.5191 30.9092 11.515C30.9092 10.5109 30.0952 9.69685 29.0911 9.69685H10.9092C9.90513 9.69685 9.09106 10.5109 9.09106 11.515C9.09106 12.5191 9.90513 13.3332 10.9092 13.3332Z" fill="white"/>
<path d="M10.9092 21.8181H29.0911C30.0952 21.8181 30.9092 21.004 30.9092 19.9999C30.9092 18.9958 30.0952 18.1817 29.0911 18.1817H10.9092C9.90513 18.1817 9.09106 18.9958 9.09106 19.9999C9.09106 21.004 9.90513 21.8181 10.9092 21.8181Z" fill="white"/>
<path d="M10.9092 30.3029H29.0911C30.0952 30.3029 30.9092 29.4888 30.9092 28.4847C30.9092 27.4806 30.0952 26.6665 29.0911 26.6665H10.9092C9.90513 26.6665 9.09106 27.4806 9.09106 28.4847C9.09106 29.4888 9.90513 30.3029 10.9092 30.3029Z" fill="white"/>
</g>
<defs>
<clipPath id="clip0_104_11805">
<rect width="40" height="40" fill="white"/>
</clipPath>
</defs>
</svg>
